PathFileType	4	(X/Y/Z)	/Users/itak/Documents/Research/Walk-IL/dataset/trc/00476_00167.trc
DataRate	CameraRate	NumFrames	NumMarkers	Units	OrigDataRate	OrigDataStartFrame	OrigNumFrames
100.000000	100.000000	4	53	mm	100.000000	490	560
Frame#	Time	RPSI			LPSI			L3			STRN			T10			C7			CLAV			RBAK			LBAK			LSHO			LUPA			LAEL			LAOL			LWTS			LWPS			LFRA			LIFD			LHPS			LHTS			RSHO			RUPA			RAEL			RAOL			RWTS			RWPS			RFRA			RIFD			RHTS			RHPS			RBHD			LFHD			RFHD			LBHD			LHIP			RHIP			RASI			LASI			LKNE			LTHI			LANK			LTIP			LTOE			LMT1			LMT5			LHEE			RKNE			RTHI			RANK			RTIP			RTOE			RMT1			RMT5			RHEE			
		X1	Y1	Z1	X2	Y2	Z2	X3	Y3	Z3	X4	Y4	Z4	X5	Y5	Z5	X6	Y6	Z6	X7	Y7	Z7	X8	Y8	Z8	X9	Y9	Z9	X10	Y10	Z10	X11	Y11	Z11	X12	Y12	Z12	X13	Y13	Z13	X14	Y14	Z14	X15	Y15	Z15	X16	Y16	Z16	X17	Y17	Z17	X18	Y18	Z18	X19	Y19	Z19	X20	Y20	Z20	X21	Y21	Z21	X22	Y22	Z22	X23	Y23	Z23	X24	Y24	Z24	X25	Y25	Z25	X26	Y26	Z26	X27	Y27	Z27	X28	Y28	Z28	X29	Y29	Z29	X30	Y30	Z30	X31	Y31	Z31	X32	Y32	Z32	X33	Y33	Z33	X34	Y34	Z34	X35	Y35	Z35	X36	Y36	Z36	X37	Y37	Z37	X38	Y38	Z38	X39	Y39	Z39	X40	Y40	Z40	X41	Y41	Z41	X42	Y42	Z42	X43	Y43	Z43	X44	Y44	Z44	X45	Y45	Z45	X46	Y46	Z46	X47	Y47	Z47	X48	Y48	Z48	X49	Y49	Z49	X50	Y50	Z50	X51	Y51	Z51	X52	Y52	Z52	X53	Y53	Z53	

491	4.9	-542.0343017578125	962.7307739257812	-418.7646179199219	-543.0286254882812	954.9552001953125	-274.9674377441406	-563.0615844726562	1063.788818359375	-346.6399841308594	-840.1336059570312	1255.465942382812	-334.1642761230469	-551.5751342773438	1185.49951171875	-327.897705078125	-620.8786010742188	1453.954223632812	-329.0478210449219	-805.9437255859375	1368.937133789062	-326.2587585449219	-554.3714599609375	1339.052490234375	-423.9162292480469	-591.687255859375	1402.022705078125	-229.0837707519531	-697.94384765625	1423.932373046875	-159.0693817138672	-706.190185546875	1314.839965820312	-54.67025375366211	-769.0563354492188	1120.959594726562	6.101315498352051	-695.82666015625	1072.370727539062	-50.42521286010742	-928.74560546875	977.6908569335938	-35.63652420043945	-895.7742919921875	944.30224609375	22.13217735290527	-826.2086181640625	1051.648681640625	17.48507308959961	-1014.922668457031	846.2285766601562	-13.37666034698486	-940.7857666015625	883.480224609375	28.33247375488281	-985.3407592773438	914.8383178710938	-19.24077415466309	-681.4347534179688	1433.206298828125	-490.5136108398438	-656.3780517578125	1379.400756835938	-567.4797973632812	-643.0280151367188	1100.306640625	-652.3385620117188	-594.794677734375	1076.06396484375	-610.6802368164062	-771.3036499023438	906.4143676757812	-615.2415161132812	-710.1864013671875	887.7495727539062	-677.4601440429688	-653.0310668945312	1043.005981445312	-665.744140625	-790.8706665039062	752.2147827148438	-630.1708374023438	-798.601318359375	812.7116088867188	-629.634033203125	-736.5089721679688	803.5225219726562	-677.760498046875	-723.240966796875	1662.368774414062	-399.6244201660156	-840.4102783203125	1650.6533203125	-229.9588165283203	-855.08984375	1667.521606445312	-358.1683044433594	-687.6965942382812	1645.81640625	-226.7358551025391	-686.166259765625	851.5914306640625	-166.0936279296875	-674.9217529296875	879.55224609375	-566.6150512695312	-767.972900390625	923.3551025390625	-494.4662780761719	-779.5136108398438	898.49072265625	-243.2166595458984	-790.2769165039062	445.269287109375	-208.8357696533203	-780.5342407226562	601.3157958984375	-182.9997406005859	-675.71728515625	43.78302383422852	-231.4115447998047	-770.765625	288.5069274902344	-203.3141174316406	-910.84033203125	42.71107482910156	-301.4666748046875	-832.870849609375	48.44875335693359	-329.5640258789062	-829.2568969726562	45.751220703125	-214.7754364013672	-630.9190673828125	48.15552520751953	-295.4228515625	-822.8245239257812	510.7598266601562	-577.6241455078125	-757.5855102539062	761.38037109375	-584.3525390625	-671.2978515625	99.88179779052734	-616.0958862304688	-798.22265625	367.1578979492188	-598.9699096679688	-872.050537109375	66.65271759033203	-543.4091186523438	-806.0293579101562	77.68824768066406	-513.7833862304688	-800.1013793945312	72.833740234375	-618.1693115234375	-601.7245483398438	111.6539001464844	-582.4885864257812	
492	4.91	-546.14892578125	963.0447998046875	-420.2526550292969	-546.409423828125	955.0968627929688	-276.6323852539062	-566.33642578125	1063.761840820312	-348.2697448730469	-842.6767578125	1255.957397460938	-333.7421264648438	-554.1233520507812	1185.444580078125	-329.6083984375	-623.0671997070312	1453.9765625	-330.0666198730469	-808.1829833984375	1369.268676757812	-326.0780334472656	-557.3154296875	1338.998779296875	-425.4787902832031	-593.3328247070312	1402.054565429688	-230.2528381347656	-699.1135864257812	1424.095336914062	-159.6450347900391	-707.1746826171875	1315.083618164062	-55.15270614624023	-770.8241577148438	1121.41552734375	5.568724155426025	-697.5849609375	1072.435546875	-50.70273971557617	-931.6289672851562	980.010986328125	-38.06845855712891	-899.7408447265625	946.1259155273438	20.03264045715332	-828.7461547851562	1052.682861328125	16.29010391235352	-1019.582092285156	849.5767211914062	-17.29974174499512	-945.5501098632812	885.8114624023438	25.52391624450684	-989.1538696289062	917.86083984375	-22.48127174377441	-684.679931640625	1433.387573242188	-491.1720275878906	-660.320556640625	1379.651123046875	-568.3502807617188	-647.8795166015625	1100.58935546875	-653.5911865234375	-599.4456787109375	1076.378662109375	-612.0839233398438	-775.4027099609375	906.3345336914062	-617.284423828125	-713.9640502929688	887.7703857421875	-678.9500732421875	-657.675048828125	1043.286743164062	-667.10546875	-794.8991088867188	752.1643676757812	-632.6676025390625	-802.4503784179688	812.4808959960938	-632.3092041015625	-740.2156982421875	803.5420532226562	-679.5611572265625	-725.432861328125	1662.384033203125	-400.2579345703125	-842.6617431640625	1650.881591796875	-230.5887603759766	-857.310546875	1667.50048828125	-358.8424682617188	-689.9519653320312	1646.127563476562	-227.3041534423828	-688.6630249023438	851.9653930664062	-166.8165435791016	-679.511474609375	879.3463745117188	-567.1202392578125	-773.0919799804688	923.00341796875	-495.0205383300781	-782.55712890625	898.8495483398438	-243.2444763183594	-790.9729614257812	445.1067199707031	-209.2048034667969	-781.9552612304688	601.3021240234375	-183.5842132568359	-675.6680297851562	43.84986877441406	-231.5593109130859	-771.0760498046875	288.4568481445312	-203.5423889160156	-910.8250122070312	42.71331787109375	-301.4420166015625	-832.8671264648438	48.431396484375	-329.5587158203125	-829.2183837890625	45.76680374145508	-214.7934112548828	-630.9534912109375	48.07436370849609	-295.6517944335938	-820.3104858398438	507.4276733398438	-577.0343017578125	-760.2169799804688	759.8056640625	-584.4171752929688	-683.8594970703125	91.77020263671875	-618.7892456054688	-799.8330078125	363.6313171386719	-599.229248046875	-885.3794555664062	66.66178131103516	-544.200439453125	-818.7167358398438	74.79105377197266	-515.0800170898438	-813.9464111328125	69.90733337402344	-619.5789794921875	-613.6589965820312	100.4292907714844	-585.5362548828125	
493	4.92	-550.3173828125	963.166015625	-421.8111572265625	-549.8568115234375	955.06982421875	-278.3929443359375	-569.6204833984375	1063.526733398438	-350.0546875	-845.08984375	1256.330444335938	-333.3899841308594	-556.5867309570312	1185.201171875	-331.5403747558594	-625.1217651367188	1453.796142578125	-331.263427734375	-810.234375	1369.472778320312	-326.0138244628906	-560.1881103515625	1338.7578125	-427.2575988769531	-594.79736328125	1401.898681640625	-231.6267242431641	-700.0718994140625	1424.07177734375	-160.3599090576172	-707.9396362304688	1315.13330078125	-55.78529739379883	-772.3764038085938	1121.639892578125	4.864188194274902	-699.103271484375	1072.334228515625	-51.15558624267578	-934.1054077148438	981.8722534179688	-40.59407806396484	-903.2208251953125	947.5474243164062	17.81173515319824	-830.9798583984375	1053.415283203125	14.95268249511719	-1023.585693359375	852.32421875	-21.31735610961914	-949.7255249023438	887.6671752929688	22.59658241271973	-992.43505859375	920.33056640625	-25.81014442443848	-687.86328125	1433.400146484375	-491.9925537109375	-664.2533569335938	1379.731811523438	-569.4009399414062	-652.7550048828125	1100.633422851562	-654.8846435546875	-604.1328125	1076.488891601562	-613.5123291015625	-779.4707641601562	905.9900512695312	-619.4520263671875	-717.6122436523438	887.4981689453125	-680.4384155273438	-662.3036499023438	1043.314575195312	-668.5015869140625	-798.906494140625	751.8504638671875	-635.2371826171875	-806.3091430664062	812.025390625	-635.0654907226562	-743.7678833007812	803.2522583007812	-681.3480224609375	-727.5466918945312	1662.230224609375	-401.0002136230469	-844.7883911132812	1650.9287109375	-231.2811889648438	-859.4234008789062	1667.281127929688	-359.5821838378906	-692.07958984375	1646.24365234375	-227.9879608154297	-691.2581787109375	852.2637329101562	-167.5639801025391	-684.013916015625	878.86376953125	-567.6549072265625	-778.0565795898438	922.41552734375	-495.5796813964844	-785.655517578125	899.135009765625	-243.3234252929688	-791.99560546875	444.8846740722656	-209.5864562988281	-783.6325073242188	601.25146484375	-184.1795349121094	-675.6235961914062	43.92084884643555	-231.7122955322266	-771.5914916992188	288.3448486328125	-203.780517578125	-910.8147583007812	42.70743179321289	-301.4293212890625	-832.8643188476562	48.40864562988281	-329.5616760253906	-829.1788940429688	45.78984832763672	-214.8179321289062	-630.9614868164062	48.02130126953125	-295.880615234375	-817.3018188476562	503.9311828613281	-576.5108642578125	-762.5112915039062	757.957763671875	-584.4432373046875	-695.3736572265625	84.41363525390625	-621.0599975585938	-800.76123046875	360.251220703125	-599.4338989257812	-897.290771484375	66.48780059814453	-544.6438598632812	-830.1426391601562	72.04447174072266	-516.020263671875	-826.401611328125	67.06661224365234	-620.6398315429688	-624.6448364257812	90.0814208984375	-588.0570068359375	
494	4.93	-554.5353393554688	963.08154296875	-423.435546875	-553.3505249023438	954.870361328125	-280.2327575683594	-572.8973388671875	1063.072021484375	-351.9924011230469	-847.3693237304688	1256.570556640625	-333.1243896484375	-558.9760131835938	1184.749633789062	-333.6838684082031	-627.0321044921875	1453.4013671875	-332.6501770019531	-812.0938720703125	1369.54052734375	-326.0805358886719	-562.9896850585938	1338.309814453125	-429.2650146484375	-596.0721435546875	1401.53515625	-233.217041015625	-700.8228149414062	1423.848999023438	-161.2190551757812	-708.4859008789062	1314.977905273438	-56.57624816894531	-773.7195434570312	1121.621826171875	3.98308253288269	-700.4053955078125	1072.053588867188	-51.79275131225586	-936.197265625	983.257568359375	-43.17886734008789	-906.2176513671875	948.5430908203125	15.48567962646484	-832.917236328125	1053.828735351562	13.48017978668213	-1026.966674804688	854.4470825195312	-25.3725700378418	-953.3209838867188	889.0166015625	19.58038902282715	-995.2018432617188	922.2203979492188	-29.19495964050293	-690.9794921875	1433.231567382812	-492.9789733886719	-668.1695556640625	1379.63134765625	-570.6441650390625	-657.6717529296875	1100.428833007812	-656.2283325195312	-608.8706665039062	1076.379028320312	-614.9829711914062	-783.5281372070312	905.360595703125	-621.6698608398438	-721.1924438476562	886.936279296875	-681.9295043945312	-666.9404296875	1043.079467773438	-669.936767578125	-802.8933715820312	751.2481689453125	-637.81298828125	-810.189697265625	811.3228149414062	-637.8081665039062	-747.2214965820312	802.6541137695312	-683.1248779296875	-729.5772705078125	1661.900146484375	-401.8526306152344	-846.7744750976562	1650.768188476562	-232.0374298095703	-861.4254150390625	1666.852905273438	-360.380126953125	-694.0587158203125	1646.158203125	-228.7965545654297	-693.9637451171875	852.4857177734375	-168.3325042724609	-688.3955078125	878.09716796875	-568.2300415039062	-782.8204345703125	921.5973510742188	-496.1427001953125	-788.8079223632812	899.3304443359375	-243.4703521728516	-793.3724975585938	444.599853515625	-209.9563903808594	-785.6026000976562	601.1634521484375	-184.7619171142578	-675.582275390625	43.99049377441406	-231.8631439208984	-772.3274536132812	288.1580810546875	-204.0186157226562	-910.8075561523438	42.69500350952148	-301.4263610839844	-832.8616943359375	48.38191604614258	-329.5707397460938	-829.1394653320312	45.81901168823242	-214.8455047607422	-630.9458618164062	47.99868011474609	-296.0976257324219	-813.8985595703125	500.3285217285156	-576.0322265625	-764.431884765625	755.8992309570312	-584.4389038085938	-705.63916015625	77.77965545654297	-622.8524780273438	-801.06103515625	357.0253601074219	-599.5680541992188	-907.6796264648438	65.91486358642578	-544.766357421875	-840.1686401367188	69.33944702148438	-516.6333618164062	-837.3271484375	64.26764678955078	-621.4029541015625	-634.4842529296875	80.73157501220703	-590.03466796875	
